0
SECTION
2
HEADER
9
$INSUNITS
70
4
9
$ACADVER
1
AC1014
9
$HANDSEED
5
FFFF
0
ENDSEC
0
SECTION
2
TABLES
0
TABLE
2
VPORT
5
8
100
AcDbSymbolTable
0
ENDTAB
0
TABLE
2
LTYPE
5
5
100
AcDbSymbolTable
0
LTYPE
5
14
100
AcDbSymbolTableRecord
100
AcDbLinetypeTableRecord
2
BYBLOCK
70
0
0
LTYPE
5
15
100
AcDbSymbolTableRecord
100
AcDbLinetypeTableRecord
2
BYLAYER
70
0
0
ENDTAB
0
TABLE
2
LAYER
5
2
100
AcDbSymbolTable
70
2
0
LAYER
5
50
100
AcDbSymbolTableRecord
100
AcDbLayerTableRecord
2
0
70
0
6
CONTINUOUS
0
ENDTAB
0
TABLE
2
STYLE
5
3
100
AcDbSymbolTable
70
1
0
STYLE
5
11
100
AcDbSymbolTableRecord
100
AcDbTextStyleTableRecord
2
STANDARD
70
0
0
ENDTAB
0
TABLE
2
VIEW
5
6
100
AcDbSymbolTable
70
0
0
ENDTAB
0
TABLE
2
UCS
5
7
100
AcDbSymbolTable
70
0
0
ENDTAB
0
TABLE
2
APPID
5
9
100
AcDbSymbolTable
70
2
0
APPID
5
12
100
AcDbSymbolTableRecord
100
AcDbRegAppTableRecord
2
ACAD
70
0
0
ENDTAB
0
TABLE
2
DIMSTYLE
5
A
100
AcDbSymbolTable
70
1
0
ENDTAB
0
TABLE
2
BLOCK_RECORD
5
1
100
AcDbSymbolTable
70
1
0
BLOCK_RECORD
5
1F
100
AcDbSymbolTableRecord
100
AcDbBlockTableRecord
2
*MODEL_SPACE
0
BLOCK_RECORD
5
1B
100
AcDbSymbolTableRecord
100
AcDbBlockTableRecord
2
*PAPER_SPACE
0
ENDTAB
0
ENDSEC
0
SECTION
2
BLOCKS
0
BLOCK
5
20
100
AcDbEntity
100
AcDbBlockBegin
2
*MODEL_SPACE
0
ENDBLK
5
21
100
AcDbEntity
100
AcDbBlockEnd
0
BLOCK
5
1C
100
AcDbEntity
100
AcDbBlockBegin
2
*PAPER_SPACE
0
ENDBLK
5
1D
100
AcDbEntity
100
AcDbBlockEnd
0
ENDSEC
0
SECTION
2
ENTITIES
0
SPLINE
5
100
100
AcDbEntity
8
0
100
AcDbSpline
70
4
71
5
72
41
73
35
74
0
42
0.000000001
43
0.0000000001
44
0.0000000001
40
0
40
0
40
0
40
0
40
0
40
0
40
0.033333333333333333
40
0.066666666666666666
40
0.10000000000000001
40
0.13333333333333333
40
0.16666666666666666
40
0.19999999999999998
40
0.23333333333333331
40
0.26666666666666666
40
0.29999999999999999
40
0.33333333333333331
40
0.36666666666666664
40
0.39999999999999997
40
0.43333333333333329
40
0.46666666666666662
40
0.49999999999999994
40
0.53333333333333333
40
0.56666666666666665
40
0.59999999999999998
40
0.6333333333333333
40
0.66666666666666663
40
0.69999999999999996
40
0.73333333333333328
40
0.76666666666666661
40
0.79999999999999993
40
0.83333333333333326
40
0.86666666666666659
40
0.89999999999999991
40
0.93333333333333324
40
0.96666666666666656
40
1
40
1
40
1
40
1
40
1
40
1
41
1
41
1
41
1
41
1
41
1
41
1
41
1
41
1
41
1
41
1
41
1
41
1
41
1
41
1
41
1
41
1
41
1
41
1
41
1
41
1
41
1
41
1
41
1
41
1
41
1
41
1
41
1
41
1
41
1
41
1
41
1
41
1
41
1
41
1
41
1
10
-0.37205091869522922
20
-53.37728885849279
30
0
10
-0.34037954949942834
20
-53.366340117673502
30
0
10
-0.27667496759823457
20
-53.341673778002871
30
0
10
-0.1800325874439398
20
-53.296367725062069
30
0
10
-0.049000927109691159
20
-53.219316205846063
30
0
10
0.11807524487699428
20
-53.095945143090468
30
0
10
0.28738395138117234
20
-52.947869589787445
30
0
10
0.45677415137587696
20
-52.780049247456247
30
0
10
0.62263609159893651
20
-52.600974675219661
30
0
10
0.78117976500490816
20
-52.421085400950517
30
0
10
0.92975129674628954
20
-52.25118165186209
30
0
10
1.0680361174957469
20
-52.100928646267775
30
0
10
1.1995883773979099
20
-51.977109593762243
30
0
10
1.3319655911954364
20
-51.882972741236948
30
0
10
1.4761533330298557
20
-51.818127436596967
30
0
10
1.6461790776620899
20
-51.778288961269084
30
0
10
1.8588119632462952
20
-51.754922746101059
30
0
10
2.131135448649661
20
-51.736831911683012
30
0
10
2.4779559513633593
20
-51.711895481179866
30
0
10
2.9091374639013607
20
-51.668796588818815
30
0
10
3.4271722104577291
20
-51.598628367117072
30
0
10
4.0239328712494462
20
-51.496903336333418
30
0
10
4.6818383660067679
20
-51.363289040514402
30
0
10
5.3764234697271807
20
-51.200615604896164
30
0
10
6.0783789643295725
20
-51.014154913933851
30
0
10
6.7557528519927965
20
-50.810815735460238
30
0
10
7.3760739768078025
20
-50.598388995995634
30
0
10
7.9084555043165237
20
-50.384798245551778
30
0
10
8.325836210665047
20
-50.177320591032142
30
0
10
8.6069428689421041
20
-49.981894424952984
30
0
10
8.7391065336450406
20
-49.802184055790192
30
0
10
8.721295014906719
20
-49.672348618152853
30
0
10
8.637850861049813
20
-49.583042634786864
30
0
10
8.5511320642299911
20
-49.52708475738153
30
0
10
8.5000001266598737
20
-49.500000737607493
30
0
0
SPLINE
5
101
100
AcDbEntity
8
0
100
AcDbSpline
70
4
71
5
72
61
73
55
74
0
42
0.000000001
43
0.0000000001
44
0.0000000001
40
0
40
0
40
0
40
0
40
0
40
0
40
0.02
40
0.040000000000000001
40
0.059999999999999998
40
0.080000000000000002
40
0.10000000000000001
40
0.12000000000000001
40
0.14000000000000001
40
0.16
40
0.17999999999999999
40
0.19999999999999998
40
0.21999999999999997
40
0.23999999999999996
40
0.25999999999999995
40
0.27999999999999997
40
0.29999999999999999
40
0.32000000000000001
40
0.34000000000000002
40
0.36000000000000004
40
0.38000000000000006
40
0.40000000000000008
40
0.4200000000000001
40
0.44000000000000011
40
0.46000000000000013
40
0.48000000000000015
40
0.50000000000000011
40
0.52000000000000013
40
0.54000000000000015
40
0.56000000000000016
40
0.58000000000000018
40
0.6000000000000002
40
0.62000000000000022
40
0.64000000000000024
40
0.66000000000000025
40
0.68000000000000027
40
0.70000000000000029
40
0.72000000000000031
40
0.74000000000000032
40
0.76000000000000034
40
0.78000000000000036
40
0.80000000000000038
40
0.8200000000000004
40
0.84000000000000041
40
0.86000000000000043
40
0.88000000000000045
40
0.90000000000000047
40
0.92000000000000048
40
0.9400000000000005
40
0.96000000000000052
40
0.98000000000000054
40
1
40
1
40
1
40
1
40
1
40
1
41
1
41
1
41
1
41
1
41
1
41
1
41
1
41
1
41
1
41
1
41
1
41
1
41
1
41
1
41
1
41
1
41
1
41
1
41
1
41
1
41
1
41
1
41
1
41
1
41
1
41
1
41
1
41
1
41
1
41
1
41
1
41
1
41
1
41
1
41
1
41
1
41
1
41
1
41
1
41
1
41
1
41
1
41
1
41
1
41
1
41
1
41
1
41
1
41
1
41
1
41
1
41
1
41
1
41
1
41
1
10
-0.37205091869522922
20
-53.37728885849279
30
0
10
-0.39788946255454083
20
-53.373934309146875
30
0
10
-0.44802137292105615
20
-53.364872427550281
30
0
10
-0.51858338024016259
20
-53.344221169687941
30
0
10
-0.60339112670493722
20
-53.302560844086656
30
0
10
-0.69436836944368319
20
-53.227162532024224
30
0
10
-0.77170482499491888
20
-53.129206164036262
30
0
10
-0.83813915839105702
20
-53.010267998939469
30
0
10
-0.89849738626559494
20
-52.873098612938861
30
0
10
-0.95915032935986122
20
-52.721646235092486
30
0
10
-1.026098802145418
20
-52.56072308805237
30
0
10
-1.1034519204477902
20
-52.395768270566101
30
0
10
-1.1916828078466102
20
-52.232576530221024
30
0
10
-1.2861062907963512
20
-52.077035852872356
30
0
10
-1.374883780679057
20
-51.934881209986557
30
0
10
-1.4422686427566991
20
-51.811152895135152
30
0
10
-1.4724578991760953
20
-51.709606175769224
30
0
10
-1.4531375749420425
20
-51.632159793101529
30
0
10
-1.3793679044323373
20
-51.578265607748406
30
0
10
-1.2567458266385836
20
-51.544471539351449
30
0
10
-1.0992336661883892
20
-51.525417749457574
30
0
10
-0.92761532761421861
20
-51.514696183523554
30
0
10
-0.76755633252311384
20
-51.505739761820763
30
0
10
-0.64826476059959715
20
-51.492742173972637
30
0
10
-0.59955577832712681
20
-51.471418204560379
30
0
10
-0.64547724468799839
20
-51.439345481878298
30
0
10
-0.79841237252473329
20
-51.396418004210894
30
0
10
-1.0534579051181063
20
-51.345202377913296
30
0
10
-1.3927994868501359
20
-51.290130665639921
30
0
10
-1.7895053654585615
20
-51.236751333243589
30
0
10
-2.2115183578018067
20
-51.190960964128905
30
0
10
-2.6255309231545909
20
-51.158248728202764
30
0
10
-3.0009333074136451
20
-51.142927741520964
30
0
10
-3.3136634667898783
20
-51.147385261534197
30
0
10
-3.5502801108404896
20
-51.171281993317031
30
0
10
-3.7115781559334788
20
-51.210854495402103
30
0
10
-3.8174887956254526
20
-51.257925157742818
30
0
10
-3.898577445806831
20
-51.301936759007219
30
0
10
-3.9851410433946048
20
-51.332512596416329
30
0
10
-4.0982803906703733
20
-51.341607737999091
30
0
10
-4.2374910856151731
20
-51.32635921886753
30
0
10
-4.3788188164254551
20
-51.289840149884213
30
0
10
-4.4902419364164441
20
-51.238397990464939
30
0
10
-4.5431198504947261
20
-51.179781678901094
30
0
10
-4.52513289652327
20
-51.120965333790934
30
0
10
-4.4528531927601698
20
-51.06608036404068
30
0
10
-4.3604863413973414
20
-51.01715493268388
30
0
10
-4.2890231314717582
20
-50.974857843241679
30
0
10
-4.2739312412329067
20
-50.939307195873944
30
0
10
-4.3377374830279516
20
-50.910619148793018
30
0
10
-4.4941028566700227
20
-50.88883463491716
30
0
10
-4.69848056924811
20
-50.876943463415394
30
0
10
-4.8973053409189813
20
-50.871136643281368
30
0
10
-5.0500800983552327
20
-50.868647583562307
30
0
10
-5.131523852870739
20
-50.867748584109371
30
0
0
SPLINE
5
102
100
AcDbEntity
8
0
100
AcDbSpline
70
4
71
5
72
151
73
145
74
0
42
0.000000001
43
0.0000000001
44
0.0000000001
40
0
40
0
40
0
40
0
40
0
40
0
40
0.0071428571428571426
40
0.014285714285714285
40
0.021428571428571429
40
0.028571428571428571
40
0.035714285714285712
40
0.042857142857142858
40
0.050000000000000003
40
0.057142857142857148
40
0.064285714285714293
40
0.071428571428571438
40
0.078571428571428584
40
0.085714285714285729
40
0.092857142857142874
40
0.10000000000000002
40
0.10714285714285716
40
0.11428571428571431
40
0.12142857142857146
40
0.12857142857142859
40
0.13571428571428573
40
0.14285714285714288
40
0.15000000000000002
40
0.15714285714285717
40
0.16428571428571431
40
0.17142857142857146
40
0.1785714285714286
40
0.18571428571428575
40
0.19285714285714289
40
0.20000000000000004
40
0.20714285714285718
40
0.21428571428571433
40
0.22142857142857147
40
0.22857142857142862
40
0.23571428571428577
40
0.24285714285714291
40
0.25000000000000006
40
0.25714285714285717
40
0.26428571428571429
40
0.27142857142857141
40
0.27857142857142853
40
0.28571428571428564
40
0.29285714285714276
40
0.29999999999999988
40
0.307142857142857
40
0.31428571428571411
40
0.32142857142857123
40
0.32857142857142835
40
0.33571428571428547
40
0.34285714285714258
40
0.3499999999999997
40
0.35714285714285682
40
0.36428571428571394
40
0.37142857142857105
40
0.37857142857142817
40
0.38571428571428529
40
0.39285714285714241
40
0.39999999999999952
40
0.40714285714285664
40
0.41428571428571376
40
0.42142857142857088
40
0.42857142857142799
40
0.43571428571428511
40
0.44285714285714223
40
0.44999999999999934
40
0.45714285714285646
40
0.46428571428571358
40
0.4714285714285707
40
0.47857142857142781
40
0.48571428571428493
40
0.49285714285714205
40
0.49999999999999917
40
0.50714285714285634
40
0.51428571428571346
40
0.52142857142857058
40
0.52857142857142769
40
0.53571428571428481
40
0.54285714285714193
40
0.54999999999999905
40
0.55714285714285616
40
0.56428571428571328
40
0.5714285714285704
40
0.57857142857142752
40
0.58571428571428463
40
0.59285714285714175
40
0.59999999999999887
40
0.60714285714285599
40
0.6142857142857131
40
0.62142857142857022
40
0.62857142857142734
40
0.63571428571428445
40
0.64285714285714157
40
0.64999999999999869
40
0.65714285714285581
40
0.66428571428571292
40
0.67142857142857004
40
0.67857142857142716
40
0.68571428571428428
40
0.69285714285714139
40
0.69999999999999851
40
0.70714285714285563
40
0.71428571428571275
40
0.72142857142856986
40
0.72857142857142698
40
0.7357142857142841
40
0.74285714285714122
40
0.74999999999999833
40
0.75714285714285545
40
0.76428571428571257
40
0.77142857142856969
40
0.7785714285714268
40
0.78571428571428392
40
0.79285714285714104
40
0.79999999999999816
40
0.80714285714285527
40
0.81428571428571239
40
0.82142857142856951
40
0.82857142857142663
40
0.83571428571428374
40
0.84285714285714086
40
0.84999999999999798
40
0.8571428571428551
40
0.86428571428571221
40
0.87142857142856933
40
0.87857142857142645
40
0.88571428571428357
40
0.89285714285714068
40
0.8999999999999978
40
0.90714285714285492
40
0.91428571428571204
40
0.92142857142856915
40
0.92857142857142627
40
0.93571428571428339
40
0.94285714285714051
40
0.94999999999999762
40
0.95714285714285474
40
0.96428571428571186
40
0.97142857142856898
40
0.97857142857142609
40
0.98571428571428321
40
0.99285714285714033
40
1
40
1
40
1
40
1
40
1
40
1
41
1
41
1
41
1
41
1
41
1
41
1
41
1
41
1
41
1
41
1
41
1
41
1
41
1
41
1
41
1
41
1
41
1
41
1
41
1
41
1
41
1
41
1
41
1
41
1
41
1
41
1
41
1
41
1
41
1
41
1
41
1
41
1
41
1
41
1
41
1
41
1
41
1
41
1
41
1
41
1
41
1
41
1
41
1
41
1
41
1
41
1
41
1
41
1
41
1
41
1
41
1
41
1
41
1
41
1
41
1
41
1
41
1
41
1
41
1
41
1
41
1
41
1
41
1
41
1
41
1
41
1
41
1
41
1
41
1
41
1
41
1
41
1
41
1
41
1
41
1
41
1
41
1
41
1
41
1
41
1
41
1
41
1
41
1
41
1
41
1
41
1
41
1
41
1
41
1
41
1
41
1
41
1
41
1
41
1
41
1
41
1
41
1
41
1
41
1
41
1
41
1
41
1
41
1
41
1
41
1
41
1
41
1
41
1
41
1
41
1
41
1
41
1
41
1
41
1
41
1
41
1
41
1
41
1
41
1
41
1
41
1
41
1
41
1
41
1
41
1
41
1
41
1
41
1
41
1
41
1
41
1
41
1
41
1
41
1
41
1
41
1
41
1
41
1
41
1
41
1
41
1
41
1
41
1
41
1
41
1
10
-5.131523852870739
20
-50.867748584109371
30
0
10
-5.1687372184999436
20
-50.877992921717578
30
0
10
-5.2423002544394279
20
-50.89825856268628
30
0
10
-5.3500533295876105
20
-50.927987419705723
30
0
10
-5.4885441139733544
20
-50.966290925247868
30
0
10
-5.6536836112059587
20
-51.012628437774652
30
0
10
-5.8128950622221431
20
-51.059555713165523
30
0
10
-5.9701612414598406
20
-51.111193274488713
30
0
10
-6.1323952387493597
20
-51.174756498860461
30
0
10
-6.3081585161248093
20
-51.258768896946421
30
0
10
-6.505550033830553
20
-51.370246879471495
30
0
10
-6.7302611982631433
20
-51.512043344998126
30
0
10
-6.9837917285032169
20
-51.680514309569432
30
0
10
-7.2610167158693928
20
-51.862065605201281
30
0
10
-7.5508407876468961
20
-52.034942109942044
30
0
10
-7.8386493432177096
20
-52.174081548962768
30
0
10
-8.1081867846400915
20
-52.25495707908366
30
0
10
-8.3437135300709251
20
-52.257988384979285
30
0
10
-8.5319458203512077
20
-52.172363593608253
30
0
10
-8.6643248091240181
20
-52.000953141533245
30
0
10
-8.7383948985136737
20
-51.762079121746496
30
0
10
-8.7568154058036356
20
-51.482633198812266
30
0
10
-8.7267872621722837
20
-51.192903110301096
30
0
10
-8.6593581893962863
20
-50.920475541485203
30
0
10
-8.5686867242171374
20
-50.685108408649299
30
0
10
-8.4715660377190201
20
-50.491720368476329
30
0
10
-8.3855130023274693
20
-50.332103650189943
30
0
10
-8.3261278850519389
20
-50.19062677554907
30
0
10
-8.3047956137866326
20
-50.04855028727431
30
0
10
-8.3259949410479202
20
-49.889183795357241
30
0
10
-8.385518294273254
20
-49.701887328656298
30
0
10
-8.4728847151163187
20
-49.48172886471135
30
0
10
-8.5731896145149324
20
-49.229661500698157
30
0
10
-8.669187728843351
20
-48.952567771543514
30
0
10
-8.7432378098414318
20
-48.663212080861477
30
0
10
-8.7794062491640883
20
-48.380626230115027
30
0
10
-8.7646597575836278
20
-48.127226872214848
30
0
10
-8.6898142804686902
20
-47.925270538533937
30
0
10
-8.5506580602202913
20
-47.793381409319679
30
0
10
-8.3488006710366953
20
-47.74339745111039
30
0
10
-8.0931519758999908
20
-47.776196569983462
30
0
10
-7.7985632046536431
20
-47.882403123457692
30
0
10
-7.4830118511967409
20
-48.045649107921527
30
0
10
-7.1652076019258644
20
-48.245055556587815
30
0
10
-6.8620979964443309
20
-48.457992612071536
30
0
10
-6.5862463390545853
20
-48.662818328878743
30
0
10
-6.343661620789578
20
-48.841394772411924
30
0
10
-6.1304401468044141
20
-48.982278616784029
30
0
10
-5.9341130569570719
20
-49.081169758211509
30
0
10
-5.7387203482269369
20
-49.139140636614201
30
0
10
-5.5289164386578147
20
-49.161504015913849
30
0
10
-5.2942545935238421
20
-49.156418556756208
30
0
10
-5.0339160703928485
20
-49.133611519765729
30
0
10
-4.7596653229511112
20
-49.103034886377969
30
0
10
-4.4914704658820757
20
-49.073323366245631
30
0
10
-4.2541262840628917
20
-49.050390766124352
30
0
10
-4.0737021551386023
20
-49.035734241826447
30
0
10
-3.9735681554094886
20
-49.025409658932503
30
0
10
-3.9719038930219024
20
-49.007299933503816
30
0
10
-4.0697550796003314
20
-48.968077696784356
30
0
10
-4.2333173803765964
20
-48.904721530782481
30
0
10
-4.4108535671739313
20
-48.820033019660833
30
0
10
-4.5510078914690837
20
-48.717773985585602
30
0
10
-4.6214039513444458
20
-48.597639027134001
30
0
10
-4.6250414679535314
20
-48.451037657825999
30
0
10
-4.584733824956901
20
-48.267968196865823
30
0
10
-4.5293133624742534
20
-48.043366177799385
30
0
10
-4.4797302526825025
20
-47.783291106663413
30
0
10
-4.4337229573961405
20
-47.512133061984841
30
0
10
-4.3733574790887086
20
-47.265141112233835
30
0
10
-4.2746122785294318
20
-47.079706508952142
30
0
10
-4.1165695466266747
20
-46.986786479063269
30
0
10
-3.8899821924600402
20
-47.002970612861773
30
0
10
-3.608169353270493
20
-47.120438218526353
30
0
10
-3.3011219808769185
20
-47.311806513928389
30
0
10
-3.0052789613055491
20
-47.538737929833417
30
0
10
-2.7550766304669709
20
-47.759124274022192
30
0
10
-2.5731008813460066
20
-47.93517041585055
30
0
10
-2.4623519110540006
20
-48.04038561319657
30
0
10
-2.3939541362656729
20
-48.068748237307219
30
0
10
-2.3081362510898948
20
-48.037585103648993
30
0
10
-2.1462668145852439
20
-47.974627001402425
30
0
10
-1.882520778798618
20
-47.906646410998363
30
0
10
-1.5394967185773476
20
-47.851487665451067
30
0
10
-1.1666573025867297
20
-47.819500014816754
30
0
10
-0.82712523685757489
20
-47.812883719035554
30
0
10
-0.58086994043541573
20
-47.825772434472583
30
0
10
-0.47002812560863977
20
-47.844233949684146
30
0
10
-0.50190141503400942
20
-47.845745076561556
30
0
10
-0.63691778061975857
20
-47.80042842770591
30
0
10
-0.81394070960066289
20
-47.684286210447098
30
0
10
-0.9746845257077873
20
-47.49351848728849
30
0
10
-1.0823198884327694
20
-47.252717556163482
30
0
10
-1.1160606176348622
20
-47.001461432503369
30
0
10
-1.0699205120181134
20
-46.784198901369464
30
0
10
-0.94973937881151327
20
-46.63955834262331
30
0
10
-0.7711612144443627
20
-46.588195659355129
30
0
10
-0.5565377687739953
20
-46.626819941885017
30
0
10
-0.3303286885880885
20
-46.737256868720053
30
0
10
-0.11456853409522892
20
-46.892699594674461
30
0
10
0.075263852742913959
20
-47.064652496901502
30
0
10
0.23557462688947761
20
-47.230594208027561
30
0
10
0.37593931754653814
20
-47.377820207171041
30
0
10
0.51360035058022324
20
-47.500373601556952
30
0
10
0.66936860159019018
20
-47.597522301352242
30
0
10
0.86327470192891276
20
-47.671720564154903
30
0
10
1.1095633619300032
20
-47.726534884099337
30
0
10
1.4150224535875386
20
-47.765614905363549
30
0
10
1.7806851986710492
20
-47.792835930314638
30
0
10
2.2025991660428978
20
-47.812112812295965
30
0
10
2.6729759472420205
20
-47.827348784781776
30
0
10
3.1811754684784517
20
-47.842326478485539
30
0
10
3.7147621318237087
20
-47.86062379315684
30
0
10
4.2605250558572703
20
-47.885518997319764
30
0
10
4.8055231504181553
20
-47.919900385828655
30
0
10
5.3380963840833262
20
-47.966173802523393
30
0
10
5.8489545808112906
20
-48.026171020596465
30
0
10
6.3308872316558507
20
-48.101055930003596
30
0
10
6.7783868134644001
20
-48.191230826850074
30
0
10
7.187303733020352
20
-48.296241977097331
30
0
10
7.5544891752369017
20
-48.41468613590942
30
0
10
7.8774418695245076
20
-48.544114125858087
30
0
10
8.1539573858476562
20
-48.680940409880407
30
0
10
8.3817673633976373
20
-48.820337825693791
30
0
10
8.5582047494491054
20
-48.956166245609879
30
0
10
8.6797980616014669
20
-49.080811117918856
30
0
10
8.7425674740998911
20
-49.185803954962097
30
0
10
8.7426048270254135
20
-49.262671206968143
30
0
10
8.6762740438233958
20
-49.303556638551527
30
0
10
8.5414302093048224
20
-49.302392935162935
30
0
10
8.343468446254418
20
-49.258712952327393
30
0
10
8.1000382519417577
20
-49.180668480110725
30
0
10
7.8477644601887597
20
-49.089324486733091
30
0
10
7.632944588914774
20
-49.012546471795346
30
0
10
7.4990695128016638
20
-48.976815903949429
30
0
10
7.4765533439792637
20
-49.000486817529357
30
0
10
7.5689509434181819
20
-49.084752380004637
30
0
10
7.7494262820238529
20
-49.211294388730295
30
0
10
7.9750745222829913
20
-49.351572071985174
30
0
10
8.1976966738410297
20
-49.473798093549362
30
0
10
8.3751224037964871
20
-49.550272561261309
30
0
10
8.4626541321232764
20
-49.56287220740586
30
0
10
8.4944945164514127
20
-49.542893457178899
30
0
10
8.5006721897373723
20
-49.516480067785338
30
0
10
8.5000001266598737
20
-49.500000737607493
30
0
0
ENDSEC
0
SECTION
2
OBJECTS
0
DICTIONARY
5
C
100
AcDbDictionary
3
ACAD_GROUP
350
D
3
ACAD_MLINESTYLE
350
17
0
DICTIONARY
5
D
100
AcDbDictionary
0
DICTIONARY
5
1A
330
C
100
AcDbDictionary
0
DICTIONARY
5
17
100
AcDbDictionary
0
ENDSEC
0
EOF
